<mxfile host="app.diagrams.net" modified="2022-10-17T16:13:34.360Z" agent="5.0 (Windows NT 10.0; Win64; x64) AppleWebKit/537.36 (KHTML, like Gecko) Chrome/106.0.0.0 Safari/537.36 Edg/106.0.1370.42" etag="gPohER9_75JdqWVG81ZB" version="20.4.1" type="github">
  <diagram id="6a731a19-8d31-9384-78a2-239565b7b9f0" name="Page-1">
    <mxGraphModel dx="3730" dy="1078" grid="1" gridSize="10" guides="1" tooltips="1" connect="1" arrows="1" fold="1" page="1" pageScale="1" pageWidth="827" pageHeight="1169" background="none" math="0" shadow="0">
      <root>
        <mxCell id="0" />
        <mxCell id="1" parent="0" />
        <mxCell id="AeRplg81MLdLgs1pl250-2353" style="edgeStyle=orthogonalEdgeStyle;rounded=0;orthogonalLoop=1;jettySize=auto;html=1;exitX=0.98;exitY=0.5;exitDx=0;exitDy=0;exitPerimeter=0;entryX=0;entryY=0.5;entryDx=0;entryDy=0;entryPerimeter=0;" edge="1" parent="1" source="2109" target="AeRplg81MLdLgs1pl250-2259">
          <mxGeometry relative="1" as="geometry" />
        </mxCell>
        <mxCell id="2109" value="Internet" style="shape=mxgraph.cisco.storage.cloud;html=1;dashed=0;strokeColor=#23445D;fillColor=#ffffff;strokeWidth=2;fontFamily=Helvetica;fontSize=24;fontColor=#23445D;align=center;fontStyle=1" parent="1" vertex="1">
          <mxGeometry x="-770" y="14" width="186" height="106" as="geometry" />
        </mxCell>
        <mxCell id="AeRplg81MLdLgs1pl250-2354" style="edgeStyle=orthogonalEdgeStyle;rounded=0;orthogonalLoop=1;jettySize=auto;html=1;exitX=0.5;exitY=1;exitDx=0;exitDy=0;exitPerimeter=0;entryX=0.5;entryY=0;entryDx=0;entryDy=0;entryPerimeter=0;" edge="1" parent="1" source="AeRplg81MLdLgs1pl250-2259" target="AeRplg81MLdLgs1pl250-2342">
          <mxGeometry relative="1" as="geometry" />
        </mxCell>
        <mxCell id="AeRplg81MLdLgs1pl250-2259" value="" style="shape=mxgraph.cisco.routers.router;html=1;dashed=0;fillColor=#10739E;strokeColor=#ffffff;strokeWidth=2;verticalLabelPosition=bottom;verticalAlign=top;fontFamily=Helvetica;fontSize=36;fontColor=#FFB366" vertex="1" parent="1">
          <mxGeometry x="-480" y="60" width="78" height="53" as="geometry" />
        </mxCell>
        <mxCell id="AeRplg81MLdLgs1pl250-2286" value="" style="group" vertex="1" connectable="0" parent="1">
          <mxGeometry x="10" y="30" width="290" height="500" as="geometry" />
        </mxCell>
        <mxCell id="AeRplg81MLdLgs1pl250-2258" value="Satellite Command &amp;amp; Control&lt;br&gt;10.57.0.0/24" style="rounded=1;whiteSpace=wrap;html=1;strokeColor=none;fillColor=#BAC8D3;fontSize=24;fontColor=#23445D;align=center;opacity=60;verticalAlign=top;" vertex="1" parent="AeRplg81MLdLgs1pl250-2286">
          <mxGeometry width="290" height="500" as="geometry" />
        </mxCell>
        <mxCell id="AeRplg81MLdLgs1pl250-2262" value="" style="shape=mxgraph.cisco.computers_and_peripherals.pc;sketch=0;html=1;pointerEvents=1;dashed=0;fillColor=#036897;strokeColor=#ffffff;strokeWidth=2;verticalLabelPosition=bottom;verticalAlign=top;align=center;outlineConnect=0;" vertex="1" parent="AeRplg81MLdLgs1pl250-2286">
          <mxGeometry x="50" y="370" width="78" height="70" as="geometry" />
        </mxCell>
        <mxCell id="AeRplg81MLdLgs1pl250-2264" value="" style="shape=mxgraph.cisco.wireless.satellite_dish;sketch=0;html=1;pointerEvents=1;dashed=0;fillColor=#036897;strokeColor=#ffffff;strokeWidth=2;verticalLabelPosition=bottom;verticalAlign=top;align=center;outlineConnect=0;" vertex="1" parent="AeRplg81MLdLgs1pl250-2286">
          <mxGeometry x="161.5" y="100" width="99" height="74" as="geometry" />
        </mxCell>
        <mxCell id="AeRplg81MLdLgs1pl250-2274" value="" style="image;html=1;image=img/lib/clip_art/computers/Printer_128x128.png" vertex="1" parent="AeRplg81MLdLgs1pl250-2286">
          <mxGeometry x="37" y="190" width="80" height="80" as="geometry" />
        </mxCell>
        <mxCell id="AeRplg81MLdLgs1pl250-2278" value="" style="shape=mxgraph.cisco.wireless.satellite_dish;sketch=0;html=1;pointerEvents=1;dashed=0;fillColor=#036897;strokeColor=#ffffff;strokeWidth=2;verticalLabelPosition=bottom;verticalAlign=top;align=center;outlineConnect=0;" vertex="1" parent="AeRplg81MLdLgs1pl250-2286">
          <mxGeometry x="30" y="100" width="99" height="74" as="geometry" />
        </mxCell>
        <mxCell id="AeRplg81MLdLgs1pl250-2281" value="" style="shape=mxgraph.cisco.computers_and_peripherals.pc;sketch=0;html=1;pointerEvents=1;dashed=0;fillColor=#036897;strokeColor=#ffffff;strokeWidth=2;verticalLabelPosition=bottom;verticalAlign=top;align=center;outlineConnect=0;" vertex="1" parent="AeRplg81MLdLgs1pl250-2286">
          <mxGeometry x="177" y="190" width="78" height="70" as="geometry" />
        </mxCell>
        <mxCell id="AeRplg81MLdLgs1pl250-2282" value="" style="shape=mxgraph.cisco.computers_and_peripherals.pc;sketch=0;html=1;pointerEvents=1;dashed=0;fillColor=#036897;strokeColor=#ffffff;strokeWidth=2;verticalLabelPosition=bottom;verticalAlign=top;align=center;outlineConnect=0;" vertex="1" parent="AeRplg81MLdLgs1pl250-2286">
          <mxGeometry x="172" y="280" width="78" height="70" as="geometry" />
        </mxCell>
        <mxCell id="AeRplg81MLdLgs1pl250-2284" value="" style="shape=mxgraph.cisco.computers_and_peripherals.pc;sketch=0;html=1;pointerEvents=1;dashed=0;fillColor=#036897;strokeColor=#ffffff;strokeWidth=2;verticalLabelPosition=bottom;verticalAlign=top;align=center;outlineConnect=0;" vertex="1" parent="AeRplg81MLdLgs1pl250-2286">
          <mxGeometry x="50" y="280" width="78" height="70" as="geometry" />
        </mxCell>
        <mxCell id="AeRplg81MLdLgs1pl250-2285" value="" style="shape=mxgraph.cisco.computers_and_peripherals.pc;sketch=0;html=1;pointerEvents=1;dashed=0;fillColor=#036897;strokeColor=#ffffff;strokeWidth=2;verticalLabelPosition=bottom;verticalAlign=top;align=center;outlineConnect=0;" vertex="1" parent="AeRplg81MLdLgs1pl250-2286">
          <mxGeometry x="172" y="370" width="78" height="70" as="geometry" />
        </mxCell>
        <mxCell id="AeRplg81MLdLgs1pl250-2295" value="" style="group" vertex="1" connectable="0" parent="1">
          <mxGeometry x="350" y="500" width="190" height="330" as="geometry" />
        </mxCell>
        <mxCell id="AeRplg81MLdLgs1pl250-2268" value="Base Servers&lt;br&gt;10.57.6.0/24" style="rounded=1;whiteSpace=wrap;html=1;strokeColor=none;fillColor=#BAC8D3;fontSize=24;fontColor=#23445D;align=center;opacity=60;verticalAlign=top;" vertex="1" parent="AeRplg81MLdLgs1pl250-2295">
          <mxGeometry width="190" height="330" as="geometry" />
        </mxCell>
        <mxCell id="AeRplg81MLdLgs1pl250-2290" value="" style="shape=mxgraph.cisco.servers.fileserver;html=1;dashed=0;fillColor=#10739E;strokeColor=#ffffff;strokeWidth=2;verticalLabelPosition=bottom;verticalAlign=top;fontFamily=Helvetica;fontSize=36;fontColor=#FFB366" vertex="1" parent="AeRplg81MLdLgs1pl250-2295">
          <mxGeometry x="73.5" y="240" width="43" height="62" as="geometry" />
        </mxCell>
        <mxCell id="AeRplg81MLdLgs1pl250-2291" value="" style="shape=mxgraph.cisco.servers.fileserver;html=1;dashed=0;fillColor=#10739E;strokeColor=#ffffff;strokeWidth=2;verticalLabelPosition=bottom;verticalAlign=top;fontFamily=Helvetica;fontSize=36;fontColor=#FFB366" vertex="1" parent="AeRplg81MLdLgs1pl250-2295">
          <mxGeometry x="73.5" y="158.5" width="43" height="62" as="geometry" />
        </mxCell>
        <mxCell id="AeRplg81MLdLgs1pl250-2292" value="" style="shape=mxgraph.cisco.servers.fileserver;html=1;dashed=0;fillColor=#10739E;strokeColor=#ffffff;strokeWidth=2;verticalLabelPosition=bottom;verticalAlign=top;fontFamily=Helvetica;fontSize=36;fontColor=#FFB366" vertex="1" parent="AeRplg81MLdLgs1pl250-2295">
          <mxGeometry x="73.5" y="81.5" width="43" height="62" as="geometry" />
        </mxCell>
        <mxCell id="AeRplg81MLdLgs1pl250-2305" value="" style="group" vertex="1" connectable="0" parent="1">
          <mxGeometry x="-180" y="780" width="510" height="240" as="geometry" />
        </mxCell>
        <mxCell id="AeRplg81MLdLgs1pl250-2266" value="" style="image;html=1;image=img/lib/clip_art/computers/Printer_Commercial_128x128.png" vertex="1" parent="AeRplg81MLdLgs1pl250-2305">
          <mxGeometry x="400" y="153" width="80" height="80" as="geometry" />
        </mxCell>
        <mxCell id="AeRplg81MLdLgs1pl250-2269" value="Base HQ&lt;br&gt;10.57.5.0/24" style="rounded=1;whiteSpace=wrap;html=1;strokeColor=none;fillColor=#BAC8D3;fontSize=24;fontColor=#23445D;align=center;opacity=60;verticalAlign=top;" vertex="1" parent="AeRplg81MLdLgs1pl250-2305">
          <mxGeometry width="510" height="240" as="geometry" />
        </mxCell>
        <mxCell id="AeRplg81MLdLgs1pl250-2275" value="" style="image;html=1;image=img/lib/clip_art/computers/Printer_128x128.png" vertex="1" parent="AeRplg81MLdLgs1pl250-2305">
          <mxGeometry x="410" y="65" width="80" height="80" as="geometry" />
        </mxCell>
        <mxCell id="AeRplg81MLdLgs1pl250-2296" value="" style="shape=mxgraph.cisco.computers_and_peripherals.pc;sketch=0;html=1;pointerEvents=1;dashed=0;fillColor=#036897;strokeColor=#ffffff;strokeWidth=2;verticalLabelPosition=bottom;verticalAlign=top;align=center;outlineConnect=0;" vertex="1" parent="AeRplg81MLdLgs1pl250-2305">
          <mxGeometry x="30" y="65" width="78" height="70" as="geometry" />
        </mxCell>
        <mxCell id="AeRplg81MLdLgs1pl250-2297" value="" style="shape=mxgraph.cisco.computers_and_peripherals.pc;sketch=0;html=1;pointerEvents=1;dashed=0;fillColor=#036897;strokeColor=#ffffff;strokeWidth=2;verticalLabelPosition=bottom;verticalAlign=top;align=center;outlineConnect=0;" vertex="1" parent="AeRplg81MLdLgs1pl250-2305">
          <mxGeometry x="30" y="145" width="78" height="70" as="geometry" />
        </mxCell>
        <mxCell id="AeRplg81MLdLgs1pl250-2298" value="" style="shape=mxgraph.cisco.computers_and_peripherals.pc;sketch=0;html=1;pointerEvents=1;dashed=0;fillColor=#036897;strokeColor=#ffffff;strokeWidth=2;verticalLabelPosition=bottom;verticalAlign=top;align=center;outlineConnect=0;" vertex="1" parent="AeRplg81MLdLgs1pl250-2305">
          <mxGeometry x="30" y="65" width="78" height="70" as="geometry" />
        </mxCell>
        <mxCell id="AeRplg81MLdLgs1pl250-2299" value="" style="shape=mxgraph.cisco.computers_and_peripherals.pc;sketch=0;html=1;pointerEvents=1;dashed=0;fillColor=#036897;strokeColor=#ffffff;strokeWidth=2;verticalLabelPosition=bottom;verticalAlign=top;align=center;outlineConnect=0;" vertex="1" parent="AeRplg81MLdLgs1pl250-2305">
          <mxGeometry x="130" y="145" width="78" height="70" as="geometry" />
        </mxCell>
        <mxCell id="AeRplg81MLdLgs1pl250-2300" value="" style="shape=mxgraph.cisco.computers_and_peripherals.pc;sketch=0;html=1;pointerEvents=1;dashed=0;fillColor=#036897;strokeColor=#ffffff;strokeWidth=2;verticalLabelPosition=bottom;verticalAlign=top;align=center;outlineConnect=0;" vertex="1" parent="AeRplg81MLdLgs1pl250-2305">
          <mxGeometry x="130" y="65" width="78" height="70" as="geometry" />
        </mxCell>
        <mxCell id="AeRplg81MLdLgs1pl250-2301" value="" style="shape=mxgraph.cisco.computers_and_peripherals.pc;sketch=0;html=1;pointerEvents=1;dashed=0;fillColor=#036897;strokeColor=#ffffff;strokeWidth=2;verticalLabelPosition=bottom;verticalAlign=top;align=center;outlineConnect=0;" vertex="1" parent="AeRplg81MLdLgs1pl250-2305">
          <mxGeometry x="220" y="145" width="78" height="70" as="geometry" />
        </mxCell>
        <mxCell id="AeRplg81MLdLgs1pl250-2302" value="" style="shape=mxgraph.cisco.computers_and_peripherals.pc;sketch=0;html=1;pointerEvents=1;dashed=0;fillColor=#036897;strokeColor=#ffffff;strokeWidth=2;verticalLabelPosition=bottom;verticalAlign=top;align=center;outlineConnect=0;" vertex="1" parent="AeRplg81MLdLgs1pl250-2305">
          <mxGeometry x="220" y="65" width="78" height="70" as="geometry" />
        </mxCell>
        <mxCell id="AeRplg81MLdLgs1pl250-2303" value="" style="shape=mxgraph.cisco.computers_and_peripherals.pc;sketch=0;html=1;pointerEvents=1;dashed=0;fillColor=#036897;strokeColor=#ffffff;strokeWidth=2;verticalLabelPosition=bottom;verticalAlign=top;align=center;outlineConnect=0;" vertex="1" parent="AeRplg81MLdLgs1pl250-2305">
          <mxGeometry x="306" y="145" width="78" height="70" as="geometry" />
        </mxCell>
        <mxCell id="AeRplg81MLdLgs1pl250-2304" value="" style="shape=mxgraph.cisco.computers_and_peripherals.pc;sketch=0;html=1;pointerEvents=1;dashed=0;fillColor=#036897;strokeColor=#ffffff;strokeWidth=2;verticalLabelPosition=bottom;verticalAlign=top;align=center;outlineConnect=0;" vertex="1" parent="AeRplg81MLdLgs1pl250-2305">
          <mxGeometry x="306" y="65" width="78" height="70" as="geometry" />
        </mxCell>
        <mxCell id="AeRplg81MLdLgs1pl250-2322" value="" style="group" vertex="1" connectable="0" parent="1">
          <mxGeometry x="-1445" y="110" width="410" height="230" as="geometry" />
        </mxCell>
        <mxCell id="AeRplg81MLdLgs1pl250-2270" value="Cryptologic Support&lt;br&gt;10.57.4.0/24" style="rounded=1;whiteSpace=wrap;html=1;strokeColor=none;fillColor=#BAC8D3;fontSize=24;fontColor=#23445D;align=center;opacity=60;verticalAlign=top;" vertex="1" parent="AeRplg81MLdLgs1pl250-2322">
          <mxGeometry width="410" height="230" as="geometry" />
        </mxCell>
        <mxCell id="AeRplg81MLdLgs1pl250-2309" value="" style="shape=mxgraph.cisco.servers.fileserver;html=1;dashed=0;fillColor=#10739E;strokeColor=#ffffff;strokeWidth=2;verticalLabelPosition=bottom;verticalAlign=top;fontFamily=Helvetica;fontSize=36;fontColor=#FFB366" vertex="1" parent="AeRplg81MLdLgs1pl250-2322">
          <mxGeometry x="40" y="150" width="43" height="62" as="geometry" />
        </mxCell>
        <mxCell id="AeRplg81MLdLgs1pl250-2314" value="" style="shape=mxgraph.cisco.modems_and_phones.phone;sketch=0;html=1;pointerEvents=1;dashed=0;fillColor=#036897;strokeColor=#ffffff;strokeWidth=2;verticalLabelPosition=bottom;verticalAlign=top;align=center;outlineConnect=0;" vertex="1" parent="AeRplg81MLdLgs1pl250-2322">
          <mxGeometry x="121" y="150" width="64" height="46" as="geometry" />
        </mxCell>
        <mxCell id="AeRplg81MLdLgs1pl250-2315" value="" style="shape=mxgraph.cisco.modems_and_phones.phone;sketch=0;html=1;pointerEvents=1;dashed=0;fillColor=#036897;strokeColor=#ffffff;strokeWidth=2;verticalLabelPosition=bottom;verticalAlign=top;align=center;outlineConnect=0;" vertex="1" parent="AeRplg81MLdLgs1pl250-2322">
          <mxGeometry x="116" y="74" width="64" height="46" as="geometry" />
        </mxCell>
        <mxCell id="AeRplg81MLdLgs1pl250-2317" value="" style="shape=mxgraph.cisco.servers.fileserver;html=1;dashed=0;fillColor=#10739E;strokeColor=#ffffff;strokeWidth=2;verticalLabelPosition=bottom;verticalAlign=top;fontFamily=Helvetica;fontSize=36;fontColor=#FFB366" vertex="1" parent="AeRplg81MLdLgs1pl250-2322">
          <mxGeometry x="37" y="68" width="43" height="62" as="geometry" />
        </mxCell>
        <mxCell id="AeRplg81MLdLgs1pl250-2318" value="" style="shape=mxgraph.cisco.computers_and_peripherals.pc;sketch=0;html=1;pointerEvents=1;dashed=0;fillColor=#036897;strokeColor=#ffffff;strokeWidth=2;verticalLabelPosition=bottom;verticalAlign=top;align=center;outlineConnect=0;" vertex="1" parent="AeRplg81MLdLgs1pl250-2322">
          <mxGeometry x="210" y="74" width="78" height="60" as="geometry" />
        </mxCell>
        <mxCell id="AeRplg81MLdLgs1pl250-2319" value="" style="shape=mxgraph.cisco.computers_and_peripherals.pc;sketch=0;html=1;pointerEvents=1;dashed=0;fillColor=#036897;strokeColor=#ffffff;strokeWidth=2;verticalLabelPosition=bottom;verticalAlign=top;align=center;outlineConnect=0;" vertex="1" parent="AeRplg81MLdLgs1pl250-2322">
          <mxGeometry x="210" y="154" width="78" height="70" as="geometry" />
        </mxCell>
        <mxCell id="AeRplg81MLdLgs1pl250-2320" value="" style="shape=mxgraph.cisco.computers_and_peripherals.pc;sketch=0;html=1;pointerEvents=1;dashed=0;fillColor=#036897;strokeColor=#ffffff;strokeWidth=2;verticalLabelPosition=bottom;verticalAlign=top;align=center;outlineConnect=0;" vertex="1" parent="AeRplg81MLdLgs1pl250-2322">
          <mxGeometry x="316" y="74" width="78" height="70" as="geometry" />
        </mxCell>
        <mxCell id="AeRplg81MLdLgs1pl250-2321" value="" style="shape=mxgraph.cisco.computers_and_peripherals.pc;sketch=0;html=1;pointerEvents=1;dashed=0;fillColor=#036897;strokeColor=#ffffff;strokeWidth=2;verticalLabelPosition=bottom;verticalAlign=top;align=center;outlineConnect=0;" vertex="1" parent="AeRplg81MLdLgs1pl250-2322">
          <mxGeometry x="316" y="154" width="78" height="70" as="geometry" />
        </mxCell>
        <mxCell id="AeRplg81MLdLgs1pl250-2328" value="" style="group" vertex="1" connectable="0" parent="1">
          <mxGeometry x="-1430" y="440" width="321" height="240" as="geometry" />
        </mxCell>
        <mxCell id="AeRplg81MLdLgs1pl250-2272" value="Cryptologic Support&lt;br&gt;10.57.1.0/24" style="rounded=1;whiteSpace=wrap;html=1;strokeColor=none;fillColor=#BAC8D3;fontSize=24;fontColor=#23445D;align=center;opacity=60;verticalAlign=top;" vertex="1" parent="AeRplg81MLdLgs1pl250-2328">
          <mxGeometry width="321" height="240" as="geometry" />
        </mxCell>
        <mxCell id="AeRplg81MLdLgs1pl250-2316" value="" style="shape=mxgraph.cisco.modems_and_phones.phone;sketch=0;html=1;pointerEvents=1;dashed=0;fillColor=#036897;strokeColor=#ffffff;strokeWidth=2;verticalLabelPosition=bottom;verticalAlign=top;align=center;outlineConnect=0;" vertex="1" parent="AeRplg81MLdLgs1pl250-2328">
          <mxGeometry x="241" y="92" width="64" height="46" as="geometry" />
        </mxCell>
        <mxCell id="AeRplg81MLdLgs1pl250-2323" value="" style="shape=mxgraph.cisco.computers_and_peripherals.pc;sketch=0;html=1;pointerEvents=1;dashed=0;fillColor=#036897;strokeColor=#ffffff;strokeWidth=2;verticalLabelPosition=bottom;verticalAlign=top;align=center;outlineConnect=0;" vertex="1" parent="AeRplg81MLdLgs1pl250-2328">
          <mxGeometry x="21" y="80" width="78" height="70" as="geometry" />
        </mxCell>
        <mxCell id="AeRplg81MLdLgs1pl250-2324" value="" style="shape=mxgraph.cisco.computers_and_peripherals.pc;sketch=0;html=1;pointerEvents=1;dashed=0;fillColor=#036897;strokeColor=#ffffff;strokeWidth=2;verticalLabelPosition=bottom;verticalAlign=top;align=center;outlineConnect=0;" vertex="1" parent="AeRplg81MLdLgs1pl250-2328">
          <mxGeometry x="21" y="160" width="78" height="70" as="geometry" />
        </mxCell>
        <mxCell id="AeRplg81MLdLgs1pl250-2325" value="" style="shape=mxgraph.cisco.computers_and_peripherals.pc;sketch=0;html=1;pointerEvents=1;dashed=0;fillColor=#036897;strokeColor=#ffffff;strokeWidth=2;verticalLabelPosition=bottom;verticalAlign=top;align=center;outlineConnect=0;" vertex="1" parent="AeRplg81MLdLgs1pl250-2328">
          <mxGeometry x="141" y="80" width="78" height="70" as="geometry" />
        </mxCell>
        <mxCell id="AeRplg81MLdLgs1pl250-2326" value="" style="shape=mxgraph.cisco.computers_and_peripherals.pc;sketch=0;html=1;pointerEvents=1;dashed=0;fillColor=#036897;strokeColor=#ffffff;strokeWidth=2;verticalLabelPosition=bottom;verticalAlign=top;align=center;outlineConnect=0;" vertex="1" parent="AeRplg81MLdLgs1pl250-2328">
          <mxGeometry x="141" y="160" width="78" height="70" as="geometry" />
        </mxCell>
        <mxCell id="AeRplg81MLdLgs1pl250-2327" value="" style="image;html=1;image=img/lib/clip_art/computers/Printer_128x128.png" vertex="1" parent="AeRplg81MLdLgs1pl250-2328">
          <mxGeometry x="233" y="150" width="80" height="80" as="geometry" />
        </mxCell>
        <mxCell id="AeRplg81MLdLgs1pl250-2336" value="" style="group" vertex="1" connectable="0" parent="1">
          <mxGeometry x="-1520" y="760" width="540" height="260" as="geometry" />
        </mxCell>
        <mxCell id="AeRplg81MLdLgs1pl250-2271" value="Cryptologic Support&lt;br&gt;10.57.1.0/24" style="rounded=1;whiteSpace=wrap;html=1;strokeColor=none;fillColor=#BAC8D3;fontSize=24;fontColor=#23445D;align=center;opacity=60;verticalAlign=top;" vertex="1" parent="AeRplg81MLdLgs1pl250-2336">
          <mxGeometry width="540" height="260" as="geometry" />
        </mxCell>
        <mxCell id="AeRplg81MLdLgs1pl250-2308" value="" style="shape=mxgraph.cisco.servers.fileserver;html=1;dashed=0;fillColor=#10739E;strokeColor=#ffffff;strokeWidth=2;verticalLabelPosition=bottom;verticalAlign=top;fontFamily=Helvetica;fontSize=36;fontColor=#FFB366" vertex="1" parent="AeRplg81MLdLgs1pl250-2336">
          <mxGeometry x="30" y="81" width="43" height="62" as="geometry" />
        </mxCell>
        <mxCell id="AeRplg81MLdLgs1pl250-2311" value="" style="shape=mxgraph.cisco.modems_and_phones.phone;sketch=0;html=1;pointerEvents=1;dashed=0;fillColor=#036897;strokeColor=#ffffff;strokeWidth=2;verticalLabelPosition=bottom;verticalAlign=top;align=center;outlineConnect=0;" vertex="1" parent="AeRplg81MLdLgs1pl250-2336">
          <mxGeometry x="132" y="81" width="64" height="46" as="geometry" />
        </mxCell>
        <mxCell id="AeRplg81MLdLgs1pl250-2313" value="" style="shape=mxgraph.cisco.modems_and_phones.phone;sketch=0;html=1;pointerEvents=1;dashed=0;fillColor=#036897;strokeColor=#ffffff;strokeWidth=2;verticalLabelPosition=bottom;verticalAlign=top;align=center;outlineConnect=0;" vertex="1" parent="AeRplg81MLdLgs1pl250-2336">
          <mxGeometry x="132" y="163" width="64" height="46" as="geometry" />
        </mxCell>
        <mxCell id="AeRplg81MLdLgs1pl250-2329" value="" style="image;html=1;image=img/lib/clip_art/computers/Printer_128x128.png" vertex="1" parent="AeRplg81MLdLgs1pl250-2336">
          <mxGeometry x="30" y="163" width="80" height="80" as="geometry" />
        </mxCell>
        <mxCell id="AeRplg81MLdLgs1pl250-2330" value="" style="shape=mxgraph.cisco.computers_and_peripherals.pc;sketch=0;html=1;pointerEvents=1;dashed=0;fillColor=#036897;strokeColor=#ffffff;strokeWidth=2;verticalLabelPosition=bottom;verticalAlign=top;align=center;outlineConnect=0;" vertex="1" parent="AeRplg81MLdLgs1pl250-2336">
          <mxGeometry x="230" y="81" width="78" height="70" as="geometry" />
        </mxCell>
        <mxCell id="AeRplg81MLdLgs1pl250-2331" value="" style="shape=mxgraph.cisco.computers_and_peripherals.pc;sketch=0;html=1;pointerEvents=1;dashed=0;fillColor=#036897;strokeColor=#ffffff;strokeWidth=2;verticalLabelPosition=bottom;verticalAlign=top;align=center;outlineConnect=0;" vertex="1" parent="AeRplg81MLdLgs1pl250-2336">
          <mxGeometry x="230" y="161" width="78" height="70" as="geometry" />
        </mxCell>
        <mxCell id="AeRplg81MLdLgs1pl250-2332" value="" style="shape=mxgraph.cisco.computers_and_peripherals.pc;sketch=0;html=1;pointerEvents=1;dashed=0;fillColor=#036897;strokeColor=#ffffff;strokeWidth=2;verticalLabelPosition=bottom;verticalAlign=top;align=center;outlineConnect=0;" vertex="1" parent="AeRplg81MLdLgs1pl250-2336">
          <mxGeometry x="337" y="81" width="78" height="70" as="geometry" />
        </mxCell>
        <mxCell id="AeRplg81MLdLgs1pl250-2333" value="" style="shape=mxgraph.cisco.computers_and_peripherals.pc;sketch=0;html=1;pointerEvents=1;dashed=0;fillColor=#036897;strokeColor=#ffffff;strokeWidth=2;verticalLabelPosition=bottom;verticalAlign=top;align=center;outlineConnect=0;" vertex="1" parent="AeRplg81MLdLgs1pl250-2336">
          <mxGeometry x="337" y="161" width="78" height="70" as="geometry" />
        </mxCell>
        <mxCell id="AeRplg81MLdLgs1pl250-2334" value="" style="shape=mxgraph.cisco.computers_and_peripherals.pc;sketch=0;html=1;pointerEvents=1;dashed=0;fillColor=#036897;strokeColor=#ffffff;strokeWidth=2;verticalLabelPosition=bottom;verticalAlign=top;align=center;outlineConnect=0;" vertex="1" parent="AeRplg81MLdLgs1pl250-2336">
          <mxGeometry x="440" y="81" width="78" height="70" as="geometry" />
        </mxCell>
        <mxCell id="AeRplg81MLdLgs1pl250-2335" value="" style="shape=mxgraph.cisco.computers_and_peripherals.pc;sketch=0;html=1;pointerEvents=1;dashed=0;fillColor=#036897;strokeColor=#ffffff;strokeWidth=2;verticalLabelPosition=bottom;verticalAlign=top;align=center;outlineConnect=0;" vertex="1" parent="AeRplg81MLdLgs1pl250-2336">
          <mxGeometry x="440" y="161" width="78" height="70" as="geometry" />
        </mxCell>
        <mxCell id="AeRplg81MLdLgs1pl250-2355" style="edgeStyle=orthogonalEdgeStyle;rounded=0;orthogonalLoop=1;jettySize=auto;html=1;exitX=0.5;exitY=0.98;exitDx=0;exitDy=0;exitPerimeter=0;entryX=0.5;entryY=0;entryDx=0;entryDy=0;entryPerimeter=0;" edge="1" parent="1" source="AeRplg81MLdLgs1pl250-2342" target="AeRplg81MLdLgs1pl250-2344">
          <mxGeometry relative="1" as="geometry" />
        </mxCell>
        <mxCell id="AeRplg81MLdLgs1pl250-2356" style="edgeStyle=orthogonalEdgeStyle;rounded=0;orthogonalLoop=1;jettySize=auto;html=1;exitX=0;exitY=0.5;exitDx=0;exitDy=0;exitPerimeter=0;entryX=1;entryY=0.5;entryDx=0;entryDy=0;" edge="1" parent="1" source="AeRplg81MLdLgs1pl250-2342" target="AeRplg81MLdLgs1pl250-2277">
          <mxGeometry relative="1" as="geometry" />
        </mxCell>
        <mxCell id="AeRplg81MLdLgs1pl250-2342" value="" style="shape=mxgraph.cisco.switches.workgroup_switch;sketch=0;html=1;pointerEvents=1;dashed=0;fillColor=#036897;strokeColor=#ffffff;strokeWidth=2;verticalLabelPosition=bottom;verticalAlign=top;align=center;outlineConnect=0;" vertex="1" parent="1">
          <mxGeometry x="-330" y="210" width="101" height="50" as="geometry" />
        </mxCell>
        <mxCell id="AeRplg81MLdLgs1pl250-2357" style="edgeStyle=orthogonalEdgeStyle;rounded=0;orthogonalLoop=1;jettySize=auto;html=1;exitX=1;exitY=0.5;exitDx=0;exitDy=0;exitPerimeter=0;" edge="1" parent="1" source="AeRplg81MLdLgs1pl250-2344" target="AeRplg81MLdLgs1pl250-2346">
          <mxGeometry relative="1" as="geometry" />
        </mxCell>
        <mxCell id="AeRplg81MLdLgs1pl250-2358" style="edgeStyle=orthogonalEdgeStyle;rounded=0;orthogonalLoop=1;jettySize=auto;html=1;entryX=0;entryY=0.98;entryDx=0;entryDy=0;entryPerimeter=0;exitX=0.88;exitY=0.9;exitDx=0;exitDy=0;exitPerimeter=0;" edge="1" parent="1" source="AeRplg81MLdLgs1pl250-2344" target="AeRplg81MLdLgs1pl250-2348">
          <mxGeometry relative="1" as="geometry">
            <mxPoint x="-360" y="760" as="sourcePoint" />
          </mxGeometry>
        </mxCell>
        <mxCell id="AeRplg81MLdLgs1pl250-2359" style="edgeStyle=orthogonalEdgeStyle;rounded=0;orthogonalLoop=1;jettySize=auto;html=1;exitX=0.5;exitY=1;exitDx=0;exitDy=0;exitPerimeter=0;entryX=0.5;entryY=0;entryDx=0;entryDy=0;entryPerimeter=0;" edge="1" parent="1" source="AeRplg81MLdLgs1pl250-2344" target="AeRplg81MLdLgs1pl250-2347">
          <mxGeometry relative="1" as="geometry" />
        </mxCell>
        <mxCell id="AeRplg81MLdLgs1pl250-2363" style="edgeStyle=orthogonalEdgeStyle;rounded=0;orthogonalLoop=1;jettySize=auto;html=1;exitX=0;exitY=0.5;exitDx=0;exitDy=0;exitPerimeter=0;entryX=1;entryY=0.5;entryDx=0;entryDy=0;entryPerimeter=0;" edge="1" parent="1" source="AeRplg81MLdLgs1pl250-2344" target="AeRplg81MLdLgs1pl250-2352">
          <mxGeometry relative="1" as="geometry" />
        </mxCell>
        <mxCell id="AeRplg81MLdLgs1pl250-2344" value="" style="shape=mxgraph.cisco.routers.router;html=1;dashed=0;fillColor=#10739E;strokeColor=#ffffff;strokeWidth=2;verticalLabelPosition=bottom;verticalAlign=top;fontFamily=Helvetica;fontSize=36;fontColor=#FFB366" vertex="1" parent="1">
          <mxGeometry x="-452" y="589.9999999999998" width="78" height="53" as="geometry" />
        </mxCell>
        <mxCell id="AeRplg81MLdLgs1pl250-2345" value="" style="group" vertex="1" connectable="0" parent="1">
          <mxGeometry x="-690" y="155" width="130" height="250" as="geometry" />
        </mxCell>
        <mxCell id="AeRplg81MLdLgs1pl250-2277" value="DMZ&lt;br&gt;10.0.1.8/29" style="rounded=1;whiteSpace=wrap;html=1;strokeColor=none;fillColor=#BAC8D3;fontSize=24;fontColor=#23445D;align=center;opacity=60;verticalAlign=top;" vertex="1" parent="AeRplg81MLdLgs1pl250-2345">
          <mxGeometry width="130" height="250" as="geometry" />
        </mxCell>
        <mxCell id="AeRplg81MLdLgs1pl250-2306" value="" style="shape=mxgraph.cisco.servers.fileserver;html=1;dashed=0;fillColor=#10739E;strokeColor=#ffffff;strokeWidth=2;verticalLabelPosition=bottom;verticalAlign=top;fontFamily=Helvetica;fontSize=36;fontColor=#FFB366" vertex="1" parent="AeRplg81MLdLgs1pl250-2345">
          <mxGeometry x="48.5" y="86.5" width="43" height="62" as="geometry" />
        </mxCell>
        <mxCell id="AeRplg81MLdLgs1pl250-2307" value="" style="shape=mxgraph.cisco.servers.fileserver;html=1;dashed=0;fillColor=#10739E;strokeColor=#ffffff;strokeWidth=2;verticalLabelPosition=bottom;verticalAlign=top;fontFamily=Helvetica;fontSize=36;fontColor=#FFB366" vertex="1" parent="AeRplg81MLdLgs1pl250-2345">
          <mxGeometry x="48.5" y="160" width="43" height="62" as="geometry" />
        </mxCell>
        <mxCell id="AeRplg81MLdLgs1pl250-2361" style="edgeStyle=orthogonalEdgeStyle;rounded=0;orthogonalLoop=1;jettySize=auto;html=1;exitX=1;exitY=0;exitDx=0;exitDy=0;exitPerimeter=0;entryX=0;entryY=0.5;entryDx=0;entryDy=0;" edge="1" parent="1" source="AeRplg81MLdLgs1pl250-2346" target="AeRplg81MLdLgs1pl250-2258">
          <mxGeometry relative="1" as="geometry" />
        </mxCell>
        <mxCell id="AeRplg81MLdLgs1pl250-2346" value="" style="shape=mxgraph.cisco.switches.workgroup_switch;sketch=0;html=1;pointerEvents=1;dashed=0;fillColor=#036897;strokeColor=#ffffff;strokeWidth=2;verticalLabelPosition=bottom;verticalAlign=top;align=center;outlineConnect=0;" vertex="1" parent="1">
          <mxGeometry x="-180" y="430" width="101" height="50" as="geometry" />
        </mxCell>
        <mxCell id="AeRplg81MLdLgs1pl250-2360" style="edgeStyle=orthogonalEdgeStyle;rounded=0;orthogonalLoop=1;jettySize=auto;html=1;exitX=0.98;exitY=0.5;exitDx=0;exitDy=0;exitPerimeter=0;entryX=0.013;entryY=0.562;entryDx=0;entryDy=0;entryPerimeter=0;" edge="1" parent="1" source="AeRplg81MLdLgs1pl250-2347" target="AeRplg81MLdLgs1pl250-2269">
          <mxGeometry relative="1" as="geometry" />
        </mxCell>
        <mxCell id="AeRplg81MLdLgs1pl250-2347" value="" style="shape=mxgraph.cisco.switches.workgroup_switch;sketch=0;html=1;pointerEvents=1;dashed=0;fillColor=#036897;strokeColor=#ffffff;strokeWidth=2;verticalLabelPosition=bottom;verticalAlign=top;align=center;outlineConnect=0;" vertex="1" parent="1">
          <mxGeometry x="-370" y="880" width="101" height="50" as="geometry" />
        </mxCell>
        <mxCell id="AeRplg81MLdLgs1pl250-2362" style="edgeStyle=orthogonalEdgeStyle;rounded=0;orthogonalLoop=1;jettySize=auto;html=1;exitX=0.98;exitY=0.5;exitDx=0;exitDy=0;exitPerimeter=0;entryX=0;entryY=0.5;entryDx=0;entryDy=0;" edge="1" parent="1" source="AeRplg81MLdLgs1pl250-2348" target="AeRplg81MLdLgs1pl250-2268">
          <mxGeometry relative="1" as="geometry" />
        </mxCell>
        <mxCell id="AeRplg81MLdLgs1pl250-2348" value="" style="shape=mxgraph.cisco.switches.workgroup_switch;sketch=0;html=1;pointerEvents=1;dashed=0;fillColor=#036897;strokeColor=#ffffff;strokeWidth=2;verticalLabelPosition=bottom;verticalAlign=top;align=center;outlineConnect=0;" vertex="1" parent="1">
          <mxGeometry x="30" y="610" width="101" height="50" as="geometry" />
        </mxCell>
        <mxCell id="AeRplg81MLdLgs1pl250-2349" value="" style="shape=mxgraph.cisco.switches.workgroup_switch;sketch=0;html=1;pointerEvents=1;dashed=0;fillColor=#036897;strokeColor=#ffffff;strokeWidth=2;verticalLabelPosition=bottom;verticalAlign=top;align=center;outlineConnect=0;" vertex="1" parent="1">
          <mxGeometry x="-950" y="240" width="101" height="50" as="geometry" />
        </mxCell>
        <mxCell id="AeRplg81MLdLgs1pl250-2367" style="edgeStyle=orthogonalEdgeStyle;rounded=0;orthogonalLoop=1;jettySize=auto;html=1;exitX=0;exitY=0.98;exitDx=0;exitDy=0;exitPerimeter=0;entryX=0.999;entryY=0.678;entryDx=0;entryDy=0;entryPerimeter=0;" edge="1" parent="1" source="AeRplg81MLdLgs1pl250-2350" target="AeRplg81MLdLgs1pl250-2272">
          <mxGeometry relative="1" as="geometry" />
        </mxCell>
        <mxCell id="AeRplg81MLdLgs1pl250-2350" value="" style="shape=mxgraph.cisco.switches.workgroup_switch;sketch=0;html=1;pointerEvents=1;dashed=0;fillColor=#036897;strokeColor=#ffffff;strokeWidth=2;verticalLabelPosition=bottom;verticalAlign=top;align=center;outlineConnect=0;" vertex="1" parent="1">
          <mxGeometry x="-980" y="570" width="101" height="50" as="geometry" />
        </mxCell>
        <mxCell id="AeRplg81MLdLgs1pl250-2366" style="edgeStyle=orthogonalEdgeStyle;rounded=0;orthogonalLoop=1;jettySize=auto;html=1;exitX=0.16;exitY=0.23;exitDx=0;exitDy=0;exitPerimeter=0;entryX=0.87;entryY=0.74;entryDx=0;entryDy=0;entryPerimeter=0;" edge="1" parent="1" source="AeRplg81MLdLgs1pl250-2351" target="AeRplg81MLdLgs1pl250-2350">
          <mxGeometry relative="1" as="geometry" />
        </mxCell>
        <mxCell id="AeRplg81MLdLgs1pl250-2368" style="edgeStyle=orthogonalEdgeStyle;rounded=0;orthogonalLoop=1;jettySize=auto;html=1;exitX=0;exitY=0.98;exitDx=0;exitDy=0;exitPerimeter=0;entryX=1;entryY=0.5;entryDx=0;entryDy=0;" edge="1" parent="1" source="AeRplg81MLdLgs1pl250-2351" target="AeRplg81MLdLgs1pl250-2271">
          <mxGeometry relative="1" as="geometry" />
        </mxCell>
        <mxCell id="AeRplg81MLdLgs1pl250-2351" value="" style="shape=mxgraph.cisco.switches.workgroup_switch;sketch=0;html=1;pointerEvents=1;dashed=0;fillColor=#036897;strokeColor=#ffffff;strokeWidth=2;verticalLabelPosition=bottom;verticalAlign=top;align=center;outlineConnect=0;" vertex="1" parent="1">
          <mxGeometry x="-879" y="875" width="101" height="50" as="geometry" />
        </mxCell>
        <mxCell id="AeRplg81MLdLgs1pl250-2364" style="edgeStyle=orthogonalEdgeStyle;rounded=0;orthogonalLoop=1;jettySize=auto;html=1;exitX=0.5;exitY=0;exitDx=0;exitDy=0;exitPerimeter=0;" edge="1" parent="1" source="AeRplg81MLdLgs1pl250-2352" target="AeRplg81MLdLgs1pl250-2349">
          <mxGeometry relative="1" as="geometry" />
        </mxCell>
        <mxCell id="AeRplg81MLdLgs1pl250-2365" style="edgeStyle=orthogonalEdgeStyle;rounded=0;orthogonalLoop=1;jettySize=auto;html=1;exitX=0.5;exitY=1;exitDx=0;exitDy=0;exitPerimeter=0;entryX=1;entryY=0;entryDx=0;entryDy=0;entryPerimeter=0;" edge="1" parent="1" source="AeRplg81MLdLgs1pl250-2352" target="AeRplg81MLdLgs1pl250-2351">
          <mxGeometry relative="1" as="geometry" />
        </mxCell>
        <mxCell id="AeRplg81MLdLgs1pl250-2352" value="" style="shape=mxgraph.cisco.routers.router;html=1;dashed=0;fillColor=#10739E;strokeColor=#ffffff;strokeWidth=2;verticalLabelPosition=bottom;verticalAlign=top;fontFamily=Helvetica;fontSize=36;fontColor=#FFB366" vertex="1" parent="1">
          <mxGeometry x="-730" y="616.9999999999998" width="78" height="53" as="geometry" />
        </mxCell>
      </root>
    </mxGraphModel>
  </diagram>
</mxfile>
